# xmcd
#
# Track frame offsets:
#  150
#  12863
#  26883
#  43491
#  63329
#  79171
#  108844
#  120949
#  134400
#  150061
#  171126
#  184305
#
# Disc length: 2710 seconds
#
# Revision: 1
# Processed by: cddbd v1.5.1PL0 Copyright (c) Steve Scherf et al.
# Submitted via: Collectorz.com_Music_Collector 6.9
#
DISCID=940a940c
DTITLE=Mojo Watson - Black Beauty
DYEAR=2004
DGENRE=Blues -  Blues Electric
TTITLE0=Black Beauty
TTITLE1=You Should Have Happened To Somebody Else
TTITLE2=She Sleeps In Off Hours
TTITLE3=I Found A Way
TTITLE4=Palm Reader
TTITLE5=Old Man Said
TTITLE6=I'm Going To Leave Kansas City
TTITLE7=Run Rachel, Run
TTITLE8=I Came Home Last Evening
TTITLE9=When JAH Calls
TTITLE10=You're The One I Love
TTITLE11=Fat Bottom Girl
EXTD=
EXTT0=
EXTT1=
EXTT2=
EXTT3=
EXTT4=
EXTT5=
EXTT6=
EXTT7=
EXTT8=
EXTT9=
EXTT10=
EXTT11=
PLAYORDER=
